<?xml version="1.0" encoding="utf-8"?>
<!-- Generator: Adobe Illustrator 22.1.0, SVG Export Plug-In . SVG Version: 6.00 Build 0)  -->
<svg version="1.1" xmlns="http://www.w3.org/2000/svg" xmlns:xlink="http://www.w3.org/1999/xlink" x="0px" y="0px"
	 viewBox="0 0 505.5 593.5" enable-background="new 0 0 505.5 593.5" xml:space="preserve">
<g id="Layer_2" display="none">
	
		<ellipse display="inline" fill="#FFFFFF" stroke="#000000" stroke-width="20" stroke-miterlimit="10" cx="252.8" cy="296.8" rx="220.1" ry="275.4"/>
</g>
<g id="Layer_3">
	<path fill="#646464" d="M0,0v593.5h505.5V0H0z M252.8,572.7c-121.6,0-220.1-123.3-220.1-275.4c0-58.1,14.4-112,38.9-156.4
		l400.8,136.9c0.4,6.5,0.6,13,0.6,19.5C472.9,449.4,374.3,572.7,252.8,572.7z"/>
</g>
<g id="Layer_1">
	<path fill="none" stroke="#000000" stroke-width="20" stroke-miterlimit="10" d="M71.6,140.3C47,184.8,32.6,238.6,32.6,296.8
		c0,152.1,98.6,275.4,220.1,275.4s220.1-123.3,220.1-275.4c0-6.6-0.2-13.1-0.6-19.5L71.6,140.3z"/>
</g>
</svg>
