<?xml version="1.0" encoding="utf-8"?>
<!-- Generator: Adobe Illustrator 22.1.0, SVG Export Plug-In . SVG Version: 6.00 Build 0)  -->
<svg version="1.1" xmlns="http://www.w3.org/2000/svg" xmlns:xlink="http://www.w3.org/1999/xlink" x="0px" y="0px"
	 viewBox="0 0 505.5 593.5" enable-background="new 0 0 505.5 593.5" xml:space="preserve">
<g id="Layer_1" display="none">
	
		<ellipse display="inline" fill="#FFFFFF" stroke="#000000" stroke-width="20" stroke-miterlimit="10" cx="252.8" cy="296.8" rx="220.1" ry="275.4"/>
</g>
<g id="Layer_3">
	<path fill="#646464" d="M0,0v593.5h505.5V0H0z M252.8,572.2c-121.6,0-220.1-123.3-220.1-275.4c0-4.9,0.1-9.8,0.3-14.7h439.6
		c0.2,4.9,0.3,9.8,0.3,14.7C472.9,448.9,374.3,572.2,252.8,572.2z"/>
</g>
<g id="Layer_2">
	<path fill="none" stroke="#000000" stroke-width="20" stroke-miterlimit="10" d="M32.9,282c-0.2,4.9-0.3,9.8-0.3,14.7
		c0,152.1,98.6,275.4,220.1,275.4s220.1-123.3,220.1-275.4c0-4.9-0.1-9.8-0.3-14.7H32.9z"/>
</g>
</svg>
