<?xml version="1.0" encoding="utf-8"?>
<!-- Generator: Adobe Illustrator 22.1.0, SVG Export Plug-In . SVG Version: 6.00 Build 0)  -->
<svg version="1.1" xmlns="http://www.w3.org/2000/svg" xmlns:xlink="http://www.w3.org/1999/xlink" x="0px" y="0px"
	 viewBox="0 0 505.5 593.5" enable-background="new 0 0 505.5 593.5" xml:space="preserve">
<g id="Layer_1" display="none">
	
		<ellipse display="inline" fill="#FFFFFF" stroke="#000000" stroke-width="20" stroke-miterlimit="10" cx="252.8" cy="296.8" rx="220.1" ry="275.4"/>
</g>
<g id="Layer_3">
	<path fill="#646464" d="M0,0v593.5h505.5V0H0z M463.5,376.5H42c-6.1-25.2-9.4-52-9.4-79.7c0-27.7,3.3-54.5,9.4-79.7h421.5
		c6.1,25.2,9.4,52,9.4,79.7C472.9,324.5,469.6,351.2,463.5,376.5z"/>
</g>
<g id="Layer_2">
	<path fill="none" stroke="#000000" stroke-width="20" stroke-miterlimit="10" d="M32.6,296.8c0,27.7,3.3,54.5,9.4,79.7h421.5
		c6.1-25.2,9.4-52,9.4-79.7c0-27.7-3.3-54.5-9.4-79.7H42C35.9,242.3,32.6,269,32.6,296.8z"/>
</g>
</svg>
