<?xml version="1.0" encoding="utf-8"?>
<!-- Generator: Adobe Illustrator 22.1.0, SVG Export Plug-In . SVG Version: 6.00 Build 0)  -->
<svg version="1.1" xmlns="http://www.w3.org/2000/svg" xmlns:xlink="http://www.w3.org/1999/xlink" x="0px" y="0px"
	 viewBox="0 0 505.5 593.5" enable-background="new 0 0 505.5 593.5" xml:space="preserve">
<g id="Layer_1" display="none">
	
		<ellipse display="inline" fill="#FFFFFF" stroke="#000000" stroke-width="20" stroke-miterlimit="10" cx="252.8" cy="296.8" rx="220.1" ry="275.4"/>
</g>
<g id="Layer_2" display="none">
	<path display="inline" fill="#646464" d="M0,0v593.5h505.5V0H0z M324.1,562.8c-109.3,29.3-229.9-66-269.3-212.9
		S72.1,60.1,181.4,30.7c109.3-29.3,229.9,66,269.3,212.9S433.4,533.4,324.1,562.8z"/>
</g>
<g id="Layer_3" display="none">
	
		<ellipse transform="matrix(0.9658 -0.2591 0.2591 0.9658 -68.2577 75.6229)" display="inline" fill="none" stroke="#000000" stroke-width="20" stroke-miterlimit="10" cx="252.8" cy="296.8" rx="204.9" ry="275.4"/>
</g>
<g id="Layer_5">
	<path fill="#646464" d="M0,0v593.5h505.5V0H0z M441,456.7c-48.3-22.1-109.7-35.4-176.6-35.4c-61.4,0-118.1,11.2-164.4,30.1
		c-19.1-30-34.4-64.6-44.6-102.6C15.1,199,70.8,53.9,179.8,24.6C288.7-4.7,409.7,93,449.9,242.7C470.8,320.5,465.8,397,441,456.7z"
		/>
</g>
<g id="Layer_4">
	<path fill="none" stroke="#000000" stroke-width="20" stroke-miterlimit="10" d="M100,451.3c46.2-18.9,103-30.1,164.4-30.1
		c66.9,0,128.3,13.3,176.6,35.4c24.9-59.7,29.9-136.2,9-213.9C409.7,93,288.7-4.7,179.8,24.6C70.8,53.9,15.1,199,55.4,348.8
		C65.6,386.7,80.9,421.3,100,451.3z"/>
</g>
</svg>
