<?xml version="1.0" encoding="utf-8"?>
<!-- Generator: Adobe Illustrator 22.1.0, SVG Export Plug-In . SVG Version: 6.00 Build 0)  -->
<svg version="1.1" xmlns="http://www.w3.org/2000/svg" xmlns:xlink="http://www.w3.org/1999/xlink" x="0px" y="0px"
	 viewBox="0 0 505.5 593.5" enable-background="new 0 0 505.5 593.5" xml:space="preserve">
<g id="Layer_1" display="none">
	
		<ellipse display="inline" fill="#FFFFFF" stroke="#000000" stroke-width="20" stroke-miterlimit="10" cx="252.8" cy="296.8" rx="220.1" ry="275.4"/>
</g>
<g id="Layer_3">
	<path fill="#646464" d="M0,0v593.5h505.5V0H0z M400.7,515.9c-23.2-12.1-54.1-19.5-88-19.5c-54.2,0-100.6,18.9-120.5,45.8
		C130.7,506.7,78.3,437.4,54.8,349.8C15.4,202.9,72.1,60.1,181.4,30.7c109.3-29.3,229.9,66,269.3,212.9
		C479.4,350.6,457.1,455.4,400.7,515.9z"/>
</g>
<g id="Layer_2">
	<path fill="none" stroke="#000000" stroke-width="20" stroke-miterlimit="10" d="M312.7,496.3c33.9,0,64.8,7.4,88,19.5
		c56.4-60.4,78.6-165.2,49.9-272.2C411.2,96.7,290.7,1.4,181.4,30.7C72.1,60.1,15.4,202.9,54.8,349.8
		c23.5,87.6,75.8,156.8,137.4,192.3C212.1,515.2,258.6,496.3,312.7,496.3z"/>
</g>
</svg>
