<?xml version="1.0" encoding="utf-8"?>
<!-- Generator: Adobe Illustrator 22.1.0, SVG Export Plug-In . SVG Version: 6.00 Build 0)  -->
<svg version="1.1" id="Layer_2" xmlns="http://www.w3.org/2000/svg" xmlns:xlink="http://www.w3.org/1999/xlink" x="0px" y="0px"
	 viewBox="0 0 505.5 593.5" style="enable-background:new 0 0 505.5 593.5;" xml:space="preserve">
<path style="fill:#646464;" d="M0,0v593.5h505.5V0H0z M360.4,489.4c-28.3,53.2-66.6,82.4-107.7,82.4s-79.3-29.3-107.7-82.4
	c-27.5-51.6-42.7-120-42.7-192.7s15.2-141.1,42.7-192.7c28.3-53.1,66.6-82.4,107.7-82.4s79.3,29.3,107.7,82.4
	c27.5,51.6,42.7,120,42.7,192.7S387.9,437.8,360.4,489.4z"/>
<path d="M252.8,581.8c-45,0-86.3-31.2-116.5-87.7C108,441.1,92.4,371,92.4,296.8c0-74.3,15.6-144.4,43.8-197.4
	c30.2-56.6,71.5-87.7,116.5-87.7s86.3,31.2,116.5,87.7c28.3,53,43.8,123.1,43.8,197.4c0,74.3-15.6,144.4-43.8,197.4
	C339.1,550.7,297.7,581.8,252.8,581.8z M252.8,31.7c-37.2,0-72.3,27.4-98.8,77.1c-26.8,50.2-41.5,116.9-41.5,188
	c0,71,14.7,137.8,41.5,188c26.5,49.7,61.6,77.1,98.8,77.1s72.3-27.4,98.8-77.1c26.8-50.2,41.5-116.9,41.5-188
	c0-71-14.7-137.8-41.5-188C325.1,59.1,290,31.7,252.8,31.7z"/>
</svg>
